<svg width="33" height="33" viewBox="0 0 33 33" fill="none" xmlns="http://www.w3.org/2000/svg">
<g clip-path="url(#clip0_416_90)">
<path d="M18.5728 23.6068L27.7493 13.3011C29.0871 13.644 30.5052 13.4667 31.7175 12.8049C31.8106 12.7436 31.8891 12.6625 31.9473 12.5674C32.0056 12.4723 32.0421 12.3655 32.0545 12.2547C32.0668 12.1438 32.0545 12.0316 32.0186 11.9261C31.9826 11.8205 31.9239 11.7241 31.8465 11.6439L21.1769 0.975922C21.1006 0.889774 21.0053 0.822629 20.8985 0.779832C20.7917 0.737034 20.6764 0.719767 20.5618 0.729403C20.4471 0.73904 20.3363 0.775315 20.2382 0.835341C20.14 0.895366 20.0572 0.977484 19.9964 1.07516C19.3431 2.2911 19.1748 3.70947 19.5251 5.04462L9.22265 14.2488C6.47962 13.2168 3.76635 13.1969 1.812 14.3977C1.67872 14.4854 1.56701 14.6021 1.48527 14.7392C1.40354 14.8762 1.35388 15.03 1.34004 15.189C1.3262 15.348 1.34853 15.508 1.40536 15.6571C1.46218 15.8062 1.55203 15.9405 1.66815 16.05L8.47861 22.8626L0.775303 30.5633C0.677661 30.6585 0.600061 30.7724 0.547077 30.8981C0.494093 31.0237 0.466797 31.1588 0.466797 31.2952C0.466797 31.4316 0.494093 31.5666 0.547077 31.6923C0.600061 31.818 0.677661 31.9318 0.775303 32.0271C0.871215 32.1279 0.98663 32.2083 1.11454 32.2632C1.24244 32.318 1.38017 32.3464 1.51934 32.3464C1.65852 32.3464 1.79625 32.318 1.92415 32.2632C2.05206 32.2083 2.16747 32.1279 2.26339 32.0271L9.94189 24.3263L16.7523 31.1389C16.8597 31.2587 16.9935 31.3518 17.1431 31.411C17.2926 31.4702 17.4539 31.4937 17.6142 31.4797C17.7744 31.4658 17.9292 31.4147 18.0663 31.3306C18.2034 31.2464 18.3191 31.1316 18.4041 30.995C19.5995 29.0103 19.5797 26.3259 18.548 23.5523L18.5728 23.6068Z" fill="#E659DF"/>
</g>
<defs>
<clipPath id="clip0_416_90">
<rect width="31.6118" height="31.6118" fill="white" transform="translate(0.467773 0.728027)"/>
</clipPath>
</defs>
</svg>
